<svg width="39" height="39" viewBox="0 0 39 39" fill="none" xmlns="http://www.w3.org/2000/svg">
<path d="M18.4965 0H12.3356C12.3356 3.41563 10.9603 6.47882 8.72294 8.72135C6.4804 10.9587 3.41722 12.3322 0.00158691 12.3339V18.4949C5.09998 18.4949 9.74231 16.4199 13.0802 13.0768C16.4215 9.73896 18.4982 5.09667 18.4982 0H18.4965Z" fill="url(#paint0_linear_24_2888)"/>
<path d="M38.7572 12.3339C35.3416 12.3339 32.2767 10.9587 30.0359 8.72135C27.7985 6.47882 26.425 3.41563 26.4233 0H20.2623C20.2623 5.09667 22.3373 9.74068 25.6786 13.0768C29.0165 16.4199 33.6588 18.4966 38.7572 18.4949V12.3339Z" fill="url(#paint1_linear_24_2888)"/>
<path d="M25.6803 25.6785C22.3389 29.0164 20.2622 33.6587 20.2639 38.7571H26.4249C26.4249 35.3414 27.8001 32.2765 30.0375 30.0357C32.28 27.7984 35.3432 26.4249 38.7588 26.4231V20.2622C33.6621 20.2622 29.0181 22.3372 25.6803 25.6785Z" fill="url(#paint2_linear_24_2888)"/>
<path d="M0.00172937 20.2622V26.4231C3.41736 26.4231 6.48227 27.7984 8.72308 30.0357C10.9604 32.2783 12.334 35.3414 12.3357 38.7571H18.4966C18.4966 33.6587 16.4217 29.0164 13.0786 25.6785C9.74072 22.3372 5.0984 20.2605 0 20.2622H0.00172937Z" fill="url(#paint3_linear_24_2888)"/>
<defs>
<linearGradient id="paint0_linear_24_2888" x1="4.42716" y1="-19.5032" x2="24.8519" y2="-13.4418" gradientUnits="userSpaceOnUse">
<stop stop-color="#00B4FD"/>
<stop offset="1" stop-color="#003ACE"/>
</linearGradient>
<linearGradient id="paint1_linear_24_2888" x1="24.6875" y1="-19.5032" x2="45.1107" y2="-13.4429" gradientUnits="userSpaceOnUse">
<stop stop-color="#00B4FD"/>
<stop offset="1" stop-color="#003ACE"/>
</linearGradient>
<linearGradient id="paint2_linear_24_2888" x1="24.6891" y1="0.759003" x2="45.1123" y2="6.81936" gradientUnits="userSpaceOnUse">
<stop stop-color="#00B4FD"/>
<stop offset="1" stop-color="#003ACE"/>
</linearGradient>
<linearGradient id="paint3_linear_24_2888" x1="4.42558" y1="0.759003" x2="24.8503" y2="6.8204" gradientUnits="userSpaceOnUse">
<stop stop-color="#00B4FD"/>
<stop offset="1" stop-color="#003ACE"/>
</linearGradient>
</defs>
</svg>
