<svg width="39" height="39" viewBox="0 0 39 39" fill="none" xmlns="http://www.w3.org/2000/svg">
<path d="M28.4258 0L32.9433 4.51931L26.8757 10.5869C24.8132 12.6512 22.0823 13.6959 19.3782 13.6923C16.676 13.6959 13.9432 12.6512 11.8807 10.5869L5.81309 4.51931L10.3306 0L16.3982 6.06756C17.2297 6.89545 18.2887 7.29863 19.3764 7.30222C20.4642 7.29863 21.5232 6.89724 22.3546 6.06756L28.4222 0H28.4258ZM38.7582 28.424L32.6907 22.3564C31.8628 21.525 31.4614 20.4659 31.4578 19.3782C31.4614 18.2887 31.8628 17.2297 32.6907 16.4L38.7582 10.3324L34.2407 5.8131L28.1731 11.8807C26.1088 13.9432 25.0641 16.6759 25.0677 19.3782C25.0641 22.0805 26.1088 24.8132 28.1731 26.874L34.2407 32.9415L38.76 28.424H38.7582ZM10.3324 38.7564L16.4 32.6888C17.2314 31.8592 18.2887 31.4578 19.3782 31.4542C20.4659 31.4578 21.525 31.8592 22.3564 32.6888L28.424 38.7564L32.9433 34.2371L26.8757 28.1695C24.8132 26.1052 22.0823 25.0605 19.3782 25.0641C16.676 25.0605 13.9432 26.1052 11.8807 28.1695L5.81309 34.2371L10.3324 38.7564ZM0 10.3324L6.06758 16.4C6.89546 17.2314 7.29684 18.2905 7.30042 19.3782C7.29684 20.4659 6.89546 21.525 6.06758 22.3564L0 28.424L4.51931 32.9433L10.5869 26.8758C12.6512 24.8132 13.6959 22.0823 13.6924 19.38C13.6959 16.6777 12.6512 13.945 10.5869 11.8825L4.51931 5.8149L0 10.3342V10.3324Z" fill="url(#paint0_linear_24_2900)"/>
<defs>
<linearGradient id="paint0_linear_24_2900" x1="9.27389" y1="-40.8694" x2="52.0744" y2="-28.1677" gradientUnits="userSpaceOnUse">
<stop stop-color="#00B4FD"/>
<stop offset="1" stop-color="#003ACE"/>
</linearGradient>
</defs>
</svg>
